<svg width="28" height="28" viewBox="0 0 28 28" fill="none" xmlns="http://www.w3.org/2000/svg">
<circle cx="13.9286" cy="13.9286" r="13.9286" fill="white"/>
<path d="M18.3522 22.0648H9.50476C8.53519 22.0619 7.60619 21.6754 6.92068 20.9897C6.23518 20.304 5.84889 19.3749 5.84619 18.4053V9.53099C5.8484 8.56109 6.23447 7.63151 6.92003 6.94543C7.60559 6.25935 8.53487 5.87257 9.50476 5.86963H18.3513C19.3212 5.87257 20.2504 6.25935 20.936 6.94543C21.6216 7.63151 22.0076 8.56109 22.0098 9.53099V18.384C22.0118 19.3568 21.6278 20.2907 20.9421 20.9807C20.2564 21.6708 19.325 22.0607 18.3522 22.0648ZM9.50476 7.47792C8.96147 7.48157 8.44148 7.69908 8.05739 8.08334C7.6733 8.4676 7.45603 8.98769 7.45262 9.53099V18.384C7.45287 18.9283 7.66912 19.4502 8.05389 19.8351C8.43867 20.2201 8.96049 20.4366 9.50476 20.4371H18.3513C18.8946 20.4334 19.4145 20.2159 19.7986 19.8316C20.1827 19.4474 20.4 18.9273 20.4034 18.384V9.53099C20.4 8.98769 20.1827 8.4676 19.7986 8.08334C19.4145 7.69908 18.8946 7.48157 18.3513 7.47792H9.50476ZM13.9183 18.1908C13.0905 18.1919 12.281 17.9475 11.5922 17.4884C10.9033 17.0293 10.3662 16.3762 10.0486 15.6118C9.73111 14.8473 9.64745 14.0058 9.80827 13.1938C9.96908 12.3818 10.3671 11.6358 10.9521 11.05C11.537 10.4643 12.2826 10.0653 13.0944 9.90337C13.9061 9.74147 14.7477 9.824 15.5126 10.1405C16.2775 10.4571 16.9313 10.9933 17.3913 11.6815C17.8513 12.3697 18.0968 13.1789 18.0968 14.0067C18.0949 15.1146 17.6543 16.1766 16.8714 16.9605C16.0885 17.7445 15.0271 18.1865 13.9192 18.1899L13.9183 18.1908ZM13.9183 11.4299C13.4085 11.4295 12.9102 11.5804 12.4862 11.8633C12.0622 12.1462 11.7316 12.5485 11.5363 13.0193C11.341 13.4901 11.2897 14.0083 11.3889 14.5083C11.4881 15.0082 11.7334 15.4676 12.0937 15.8281C12.454 16.1887 12.9131 16.4343 13.413 16.5338C13.9129 16.6334 14.4311 16.5825 14.9021 16.3875C15.373 16.1925 15.7756 15.8623 16.0588 15.4385C16.342 15.0147 16.4932 14.5164 16.4932 14.0067C16.4908 13.3244 16.2189 12.6708 15.7368 12.188C15.2547 11.7052 14.6014 11.4324 13.9192 11.429L13.9183 11.4299ZM18.2742 8.79556C17.9923 8.79823 17.7228 8.91159 17.5237 9.11118C17.3246 9.31077 17.212 9.5806 17.21 9.86249C17.2097 10.0025 17.237 10.1411 17.2904 10.2705C17.3438 10.3999 17.4222 10.5175 17.5212 10.6164C17.6202 10.7154 17.7377 10.7938 17.8671 10.8472C17.9965 10.9006 18.1351 10.9279 18.2751 10.9276C18.5567 10.9249 18.8259 10.8118 19.025 10.6126C19.224 10.4134 19.3368 10.1441 19.3393 9.86249C19.3343 9.58131 19.2205 9.313 19.022 9.11389C18.8234 8.91478 18.5554 8.80128 18.2742 8.79556Z" fill="#EEBC4E"/>
</svg>
